<?xml version="1.0" encoding="UTF-8"?>
<svg id="Layer_2" xmlns="http://www.w3.org/2000/svg" version="1.1" viewBox="0 0 300 229.72">
  <!-- Generator: Adobe Illustrator 30.6.0, SVG Export Plug-In . SVG Version: 2.1.4 Build 11)  -->
  <defs>
    <style>
      .st0 {
        fill: #1f2a38;
      }

      .st1 {
        fill: #5979bb;
      }
    </style>
  </defs>
  <path class="st1" d="M206.05,35.99s.02.02.04.03c0-.02,0-.04.02-.05-.02,0-.04.02-.06.02ZM150,105.06v.13h.07l-.07-.13ZM246.11,27.87c.07.04.14.07.22.11.03-.04.06-.07.08-.11h-.3ZM246.41,27.87h-.3M167.13,106.04l-7.07,9.63-5.41-10.48-.03-.06-4.62-8.94-4.62,8.94-.03.06-5.41,10.48-7.07-9.63c.14-.28.27-.56.39-.84.11-.24.22-.48.32-.72,3.12-7.19,4.85-15.12,4.85-23.45,0-2.52-.16-5.01-.47-7.44,4.38-1.83,8.43-4.29,12.03-7.29,3.61,2.99,7.66,5.46,12.03,7.29-.31,2.43-.47,4.92-.47,7.44,0,8.33,1.73,16.27,4.85,23.45.1.24.21.49.32.72.12.29.26.56.39.84h.02ZM157.38,119.33l-7.38,10.06-7.38-10.06,7.31-14.14h.13l7.31,14.14h.01ZM150,105.19v-.13M206.11,35.97s0,.04-.02.05c-.02,0-.03-.02-.04-.03.02,0,.04,0,.06-.02ZM206.05,35.99s.02.02.04.03c0-.02,0-.04.02-.05-.02,0-.04.02-.06.02ZM206.11,35.97s0,.04-.02.05c-.02,0-.03-.02-.04-.03.02,0,.04,0,.06-.02ZM246.11,27.87c.07.04.14.07.22.11.03-.04.06-.07.08-.11h-.3ZM206.05,35.99s.02.02.04.03c0-.02,0-.04.02-.05-.02,0-.04.02-.06.02ZM246.11,27.87h.3s-.05.07-.08.11c-.08-.04-.15-.07-.22-.11ZM206.11,35.97s0,.04-.02.05c-.02,0-.03-.02-.04-.03.02,0,.04,0,.06-.02ZM206.05,35.99s.02.02.04.03c0-.02,0-.04.02-.05-.02,0-.04.02-.06.02ZM206.11,35.97s0,.04-.02.05c-.02,0-.03-.02-.04-.03.02,0,.04,0,.06-.02ZM206.05,35.99s.02.02.04.03c0-.02,0-.04.02-.05-.02,0-.04.02-.06.02ZM206.05,35.99s.02.02.04.03c0-.02,0-.04.02-.05-.02,0-.04.02-.06.02ZM166.93,56.41c-.58,1.26-1.12,2.54-1.61,3.85-1.1,2.92-1.97,5.96-2.6,9.09-4.75-2.11-9.05-5.05-12.72-8.64-3.67,3.59-7.97,6.53-12.72,8.64-.62-3.12-1.5-6.16-2.6-9.09-.49-1.31-1.03-2.6-1.61-3.85,4.75-1.51,9.01-4.15,12.47-7.58,1.69-1.68,3.19-3.55,4.46-5.58,1.27,2.03,2.77,3.9,4.46,5.58,3.46,3.44,7.71,6.07,12.47,7.58ZM206.05,35.99s.02.02.04.03c0-.02,0-.04.02-.05-.02,0-.04.02-.06.02ZM300,27.87c-6.94,9.73-14.81,18.77-23.48,26.96l-35.24-19.04c.7-1.36,1.31-2.77,1.83-4.23.15-.43.3-.88.44-1.32.24-.78.46-1.57.65-2.38h1.91c.07.04.14.07.22.11.03-.04.06-.07.08-.11h53.59ZM273.77,57.39c-.65.59-1.3,1.18-1.96,1.75-6.75,5.96-13.95,11.43-21.52,16.37l-29.64-20.48c.46-.71.88-1.43,1.29-2.16,6.88-2.5,12.76-7.09,16.88-12.99.23-.33.45-.66.67-1,0,0,34.28,18.51,34.28,18.51ZM247.01,77.59c-5.26,3.27-10.7,6.28-16.3,9.01l-19.97-20.31c2.95-2.44,5.6-5.24,7.89-8.31l28.38,19.62h0ZM227.3,88.22c-4.72,2.19-9.54,4.18-14.46,5.97l-12.06-21.54c2.49-1.19,4.87-2.59,7.11-4.18l19.41,19.75ZM209.43,95.39c-3.22,1.1-6.48,2.11-9.78,3.03l-7.54-22.63c1.84-.46,3.63-1.04,5.38-1.72l11.94,21.32h0ZM196.21,99.35c-3,.77-6.03,1.47-9.09,2.1h0l-4.91-24.23c2.18-.08,4.32-.31,6.41-.68l7.6,22.81h-.01ZM183.61,102.13c-2.87.53-5.76,1-8.68,1.39v-26.58c1.19.14,2.41.23,3.63.28,0,0,5.05,24.91,5.05,24.91ZM171.37,76.39v27.57c-.52.06-1.04.12-1.56.17-.17-.36-.33-.72-.49-1.09-2.91-6.76-4.53-14.21-4.53-22.03,0-2.11.12-4.2.35-6.26,2.02.68,4.09,1.23,6.22,1.64h0ZM239.91,27.87c-.07.27-.15.53-.23.79-.86,2.87-2.13,5.57-3.74,8.03-2.78,1.45-5.8,2.49-8.99,3.03-1.43.25-2.89.4-4.37.44-.31,0-.63.02-.94.02-4.16,0-8.13-.82-11.76-2.31-.38-.15-.75-.31-1.12-.49-.8-.36-1.58-.76-2.34-1.19-.11-.06-.21-.12-.31-.18,0-.02,0-.04.02-.05.18-.09.36-.17.53-.26,1.19-.59,2.37-1.19,3.54-1.82h0c.28-.15.56-.3.84-.45,3.17-1.73,6.26-3.58,9.26-5.56h19.62,0ZM206.11,35.97s0,.04-.02.05c-.02,0-.03-.02-.04-.03.02,0,.04,0,.06-.02ZM230.14,43.31c-1.66,1.43-3.48,2.69-5.42,3.75-1.78.96-3.66,1.76-5.62,2.38-2.92.91-6.02,1.4-9.22,1.4-2.4,0-4.74-.27-6.99-.79,2.19-2.48,4.02-5.27,5.44-8.3,4.01,1.64,8.4,2.56,12.99,2.6h.32c1.4,0,2.79-.08,4.15-.24,1.48-.17,2.94-.44,4.36-.79h-.01ZM216.08,54.45c-7.86,11.27-20.92,18.64-35.7,18.64-5.13,0-10.04-.88-14.6-2.51.61-3.25,1.51-6.41,2.67-9.43,2.55.59,5.21.9,7.94.9,8.83,0,16.91-3.25,23.09-8.61,3.28,1.02,6.78,1.56,10.4,1.56,2.12,0,4.19-.18,6.21-.55h0ZM181.22,124.96l-.11.15M173.29,150.13l-23.29,31.56-23.29-31.56,4.35-8.42,18.94,25.83,18.94-25.83,4.35,8.42h0ZM167.04,138.04l-17.04,23.23-17.04-23.23,7.44-14.38,9.6,13.1,9.6-13.1,7.44,14.38h0ZM150.07,105.19l-.07-.13M172.03,47.48c-1.48,2.13-2.83,4.37-4.01,6.7-3.58-1.28-6.87-3.17-9.74-5.54-3.4-2.8-6.23-6.27-8.28-10.21-2.05,3.94-4.88,7.41-8.28,10.21-2.87,2.36-6.16,4.25-9.74,5.54-1.19-2.33-2.53-4.57-4.01-6.7.21-.11.43-.23.64-.35,6.82-3.94,11.62-11.01,12.4-19.25.36-3.67-.56-6.35-1.13-7.67-.37-.86-3.46-7.79-9.32-8.13-1.97-.12-3.59.55-4.53,1.05.17-1.63.69-3.99,2.44-5.84,5.1-3.56,14.55-2.64,21.07-2.33,8.47.69,12.24,1.7,16.81-.66,2.46-1.27,4.13-2.99,5.19-4.3-.07,1.41-.44,4.82-2.87,8.14-3.2,4.38-7.76,5.54-8.99,5.81-.42,1.8-.8,3.88-1,6.19-.27,2.93-.03,5.55.16,7.75h0c.78,8.24,5.75,15.32,12.57,19.25.21.12.42.24.64.35h-.02ZM206.1,36.02c-.24.77-.5,1.52-.8,2.26,0,0,0,.02,0,.02-.22.56-.46,1.1-.72,1.65-1.52,3.25-3.59,6.2-6.1,8.72-1.08,1.1-2.25,2.11-3.49,3.03-.56.42-1.15.83-1.74,1.21-4.86,3.15-10.65,4.98-16.86,4.98-2.15,0-4.25-.22-6.28-.64.34-.71.69-1.42,1.06-2.12,1.15-2.19,2.44-4.29,3.85-6.29.68-.96,1.4-1.91,2.14-2.82,2.47-.53,4.91-1.13,7.32-1.82,1.54-.42,3.06-.88,4.58-1.37,4.27-1.37,8.45-2.95,12.51-4.75,1.51-.67,3.01-1.36,4.49-2.09,0,0,.02.02.04.03h.01ZM206.11,35.97s0,.04-.02.05c-.02,0-.03-.02-.04-.03.02,0,.04,0,.06-.02ZM181.11,125.12l-9.48,12.93-1.9-3.68-7.43-14.38,7.07-9.65c2.53,4.4,5.61,8.45,9.15,12.04.87.91,1.73,1.82,2.6,2.74h-.01ZM93.89,35.97s.01.04.02.05c.02,0,.03-.02.04-.03-.02,0-.04,0-.06-.02ZM149.93,105.19h.07v-.13l-.07.13ZM53.59,27.87s.05.07.08.11c.08-.04.15-.07.22-.11h-.3ZM53.89,27.87h-.3M150,105.06v.13M93.95,35.99s-.02.02-.04.03c0-.02-.01-.04-.02-.05.02,0,.04.02.06.02ZM93.89,35.97s.01.04.02.05c.02,0,.03-.02.04-.03-.02,0-.04,0-.06-.02ZM93.95,35.99s-.02.02-.04.03c0-.02-.01-.04-.02-.05.02,0,.04.02.06.02ZM53.59,27.87s.05.07.08.11c.08-.04.15-.07.22-.11h-.3ZM93.89,35.97s.01.04.02.05c.02,0,.03-.02.04-.03-.02,0-.04,0-.06-.02ZM53.67,27.98s-.06-.07-.08-.11h.3c-.07.04-.14.07-.22.11ZM93.95,35.99s-.02.02-.04.03c0-.02-.01-.04-.02-.05.02,0,.04.02.06.02ZM93.89,35.97s.01.04.02.05c.02,0,.03-.02.04-.03-.02,0-.04,0-.06-.02ZM93.95,35.99s-.02.02-.04.03c0-.02-.01-.04-.02-.05.02,0,.04.02.06.02ZM93.89,35.97s.01.04.02.05c.02,0,.03-.02.04-.03-.02,0-.04,0-.06-.02ZM93.89,35.97s.01.04.02.05c.02,0,.03-.02.04-.03-.02,0-.04,0-.06-.02ZM93.89,35.97s.01.04.02.05c.02,0,.03-.02.04-.03-.02,0-.04,0-.06-.02ZM53.59,27.87s.05.07.08.11c.08-.04.15-.07.22-.11h1.91c.19.8.41,1.6.65,2.38.14.44.29.88.44,1.32.52,1.46,1.13,2.87,1.83,4.23l-35.24,19.04C14.81,46.64,6.94,37.6,0,27.87h53.59ZM60.51,38.88c.22.34.44.67.67,1,4.12,5.91,10,10.49,16.88,12.99.41.73.84,1.45,1.29,2.16l-29.64,20.48c-7.58-4.94-14.77-10.41-21.52-16.37-.66-.58-1.31-1.16-1.96-1.75,0,0,34.28-18.51,34.28-18.51ZM81.37,57.98c2.29,3.08,4.94,5.87,7.89,8.31l-19.97,20.31c-5.6-2.73-11.04-5.74-16.3-9.01l28.38-19.62h0ZM92.1,68.48c2.24,1.59,4.61,2.99,7.11,4.18l-12.06,21.54c-4.92-1.79-9.75-3.78-14.46-5.97,0,0,19.41-19.75,19.41-19.75ZM102.51,74.07c1.75.68,3.54,1.25,5.38,1.72l-7.54,22.63c-3.3-.93-6.56-1.94-9.78-3.03l11.94-21.32ZM111.4,76.54c2.09.37,4.23.59,6.41.68l-4.91,24.23h0c-3.06-.62-6.09-1.32-9.09-2.1l7.6-22.81h0ZM121.44,77.21c1.22-.05,2.44-.14,3.63-.28v26.58c-2.92-.39-5.81-.86-8.68-1.39,0,0,5.05-24.91,5.05-24.91ZM134.86,74.75c.23,2.05.35,4.15.35,6.26,0,7.83-1.62,15.28-4.53,22.03-.15.36-.31.72-.49,1.09-.52-.05-1.04-.11-1.56-.17v-27.57c2.13-.41,4.2-.96,6.22-1.64h0ZM79.72,27.87c3,1.98,6.09,3.83,9.26,5.56.28.15.56.3.84.45h0c1.17.64,2.35,1.24,3.54,1.83.17.09.35.17.53.26,0,.02.01.04.02.05-.1.06-.21.12-.31.18-.76.43-1.54.83-2.34,1.19-.37.17-.74.33-1.12.49-3.63,1.49-7.6,2.31-11.76,2.31-.31,0-.63,0-.94-.02-1.48-.04-2.95-.19-4.37-.44-3.19-.55-6.21-1.59-8.99-3.03-1.61-2.46-2.87-5.16-3.74-8.03-.08-.26-.16-.52-.23-.79h19.62,0ZM93.95,35.99s-.02.02-.04.03c0-.02-.01-.04-.02-.05.02,0,.04.02.06.02ZM74.22,44.1c1.36.16,2.74.24,4.15.24h.32c4.59-.04,8.97-.96,12.99-2.6,1.42,3.03,3.25,5.82,5.44,8.3-2.25.52-4.59.79-6.99.79-3.21,0-6.31-.49-9.22-1.4-1.96-.61-3.84-1.41-5.62-2.38-1.94-1.06-3.76-2.32-5.42-3.75,1.42.35,2.87.62,4.36.79h-.01ZM90.13,54.99c3.62,0,7.12-.55,10.4-1.56,6.18,5.36,14.26,8.61,23.09,8.61,2.73,0,5.39-.31,7.94-.9,1.16,3.02,2.05,6.18,2.67,9.43-4.56,1.63-9.48,2.51-14.6,2.51-14.78,0-27.84-7.37-35.7-18.64,2.01.36,4.09.55,6.21.55h0ZM118.89,125.12l-.11-.15M150,105.06l-.07.13M93.95,35.99c1.48.73,2.98,1.43,4.49,2.09,4.06,1.79,8.24,3.38,12.51,4.75,1.51.49,3.04.95,4.58,1.37,2.41.68,4.85,1.29,7.32,1.82.74.91,1.46,1.86,2.14,2.82,1.42,2,2.71,4.1,3.85,6.29.37.7.72,1.41,1.06,2.12-2.03.42-4.13.64-6.28.64-6.21,0-12-1.82-16.86-4.98-.59-.38-1.18-.78-1.74-1.21-1.24-.92-2.41-1.94-3.49-3.03-2.51-2.52-4.58-5.47-6.1-8.72-.26-.54-.5-1.09-.72-1.65,0,0,0,0-.01-.02-.3-.74-.56-1.49-.8-2.26.02,0,.03-.02.04-.03h.01ZM93.95,35.99s-.02.02-.04.03c0-.02-.01-.04-.02-.05.02,0,.04.02.06.02ZM121.49,122.38c3.54-3.59,6.62-7.64,9.15-12.04l7.07,9.65-7.43,14.38-1.9,3.68-9.48-12.93c.86-.91,1.73-1.82,2.6-2.74h-.01Z"/>
  <path class="st0" d="M38.39,229.72l-6.56-11.25h-6.9v11.25h-11.14v-42.4h17.86c8.59,0,15.6,7.01,15.6,15.6,0,4.52-1.98,8.59-5.03,11.42l8.99,15.38h-12.83ZM24.93,208.86h6.9c3.39,0,6.11-2.66,6.11-6.05s-2.71-6.11-6.11-6.11h-6.9v12.15ZM56.71,187.32h26.34v9.21h-15.21v6.9h13.46v9.38h-13.46v7.8h15.21v9.1h-26.34v-42.4ZM106.63,200.32c0-1.75-1.47-3.22-3.22-3.22s-3.17,1.47-3.17,3.22,1.41,3.17,3.17,3.17c4.13,0,7.86,1.98,10.23,5.03,1.81,2.26,2.83,5.09,2.83,8.2,0,7.24-5.82,13-13.06,13s-13.06-5.71-13.06-13.17h9.89c0,1.81,1.41,3.22,3.17,3.22s3.22-1.41,3.22-3.17-1.47-3.22-3.22-3.22c-7.24,0-13-5.77-13-13s5.77-13.06,13-13.06,13.06,5.77,13.06,13h-9.84ZM135.52,212.82c0,3.05,2.49,5.54,5.54,5.54s5.54-2.49,5.54-5.54v-25.5h11.19v25.67c0,9.33-7.52,16.73-16.73,16.73s-16.73-7.41-16.73-16.73v-25.67h11.19v25.5ZM190.87,229.72l-6.56-11.25h-6.9v11.25h-11.14v-42.4h17.86c8.59,0,15.6,7.01,15.6,15.6,0,4.52-1.98,8.59-5.03,11.42l8.99,15.38h-12.83ZM177.41,208.86h6.9c3.39,0,6.11-2.66,6.11-6.05s-2.71-6.11-6.11-6.11h-6.9v12.15ZM249.79,206.94v1.58c0,11.7-9.5,21.2-21.2,21.2s-21.14-9.5-21.14-21.2,9.44-21.2,21.14-21.2c5.82,0,11.08,2.37,14.93,6.16l-7.86,7.8c-1.81-1.7-4.18-2.83-7.07-2.83-5.31,0-10.01,4.24-10.01,10.06s4.8,10.06,10.01,10.06c3.34,0,6.45-1.64,8.2-4.18h-8.2v-7.46h21.2ZM275.34,187.32c11.7,0,21.2,9.55,21.2,21.26s-9.5,21.14-21.2,21.14-21.14-9.44-21.14-21.14,9.44-21.26,21.14-21.26ZM275.34,198.4c-5.54,0-10.06,4.52-10.06,10.12s4.52,10.12,10.06,10.12,10.12-4.58,10.12-10.12-4.52-10.12-10.12-10.12Z"/>
</svg>