<svg xmlns="http://www.w3.org/2000/svg" viewBox="0 0 300 185" role="img" aria-label="RESURGO">
  <path fill="#5979bb" d="M167.13,106.06l-7.07,9.63-5.41-10.48-.03-.06-4.62-8.94-4.62,8.94-.03.06-5.41,10.48-7.07-9.63c.14-.28.27-.56.39-.84.11-.24.22-.48.32-.72,3.12-7.19,4.85-15.12,4.85-23.45,0-2.52-.16-5.01-.47-7.44,4.38-1.83,8.43-4.29,12.03-7.29,3.61,2.99,7.66,5.46,12.03,7.29-.31,2.43-.47,4.92-.47,7.44,0,8.33,1.73,16.27,4.85,23.45.1.24.21.49.32.72.12.29.26.56.39.84ZM157.38,119.35l-7.38,10.06-7.38-10.06,7.31-14.14h.13l7.31,14.14ZM300,27.89c-6.94,9.73-14.81,18.77-23.48,26.96l-35.24-19.04c.7-1.36,1.31-2.77,1.83-4.23.15-.43.3-.88.44-1.32.24-.78.46-1.57.65-2.38h56.8ZM273.77,57.41c-.65.59-1.3,1.18-1.96,1.75-6.75,5.96-13.95,11.43-21.52,16.37l-29.64-20.48c.46-.71.88-1.43,1.29-2.16,6.88-2.5,12.76-7.09,16.88-12.99.23-.33.45-.66.67-1l34.28,18.51ZM247.01,77.61c-5.26,3.27-10.7,6.28-16.3,9.01l-19.97-20.31c2.95-2.44,5.6-5.24,7.89-8.31l28.38,19.62ZM216.08,54.47c-7.86,11.27-20.92,18.64-35.7,18.64-5.13,0-10.04-.88-14.6-2.51.61-3.25,1.51-6.41,2.67-9.43,2.55.59,5.21.9,7.94.9,8.83,0,16.91-3.25,23.09-8.61,3.28,1.02,6.78,1.56,10.4,1.56,2.12,0,4.19-.18,6.21-.55ZM173.29,150.15l-23.29,31.56-23.29-31.56,4.35-8.42,18.94,25.83,18.94-25.83,4.35,8.42ZM167.04,138.06l-17.04,23.23-17.04-23.23,7.44-14.38,9.6,13.1,9.6-13.1,7.44,14.38ZM172.03,47.5c-1.48,2.13-2.83,4.37-4.01,6.7-3.58-1.28-6.87-3.17-9.74-5.54-3.4-2.8-6.23-6.27-8.28-10.21-2.05,3.94-4.88,7.41-8.28,10.21-2.87,2.36-6.16,4.25-9.74,5.54-1.19-2.33-2.53-4.57-4.01-6.7.21-.11.43-.23.64-.35,6.82-3.94,11.62-11.01,12.4-19.25.36-3.67-.56-6.35-1.13-7.67-.37-.86-3.46-7.79-9.32-8.13-1.97-.12-3.59.55-4.53,1.05.17-1.63.69-3.99,2.44-5.84,5.1-3.56,14.55-2.64,21.07-2.33,8.47.69,12.24,1.7,16.81-.66,2.46-1.27,4.13-2.99,5.19-4.3-.07,1.41-.44,4.82-2.87,8.14-3.2,4.38-7.76,5.54-8.99,5.81-.42,1.8-.8,3.88-1,6.19-.27,2.93-.03,5.55.16,7.75h0c.78,8.24,5.75,15.32,12.57,19.25.21.12.42.24.64.35ZM0,27.89c6.94,9.73,14.81,18.77,23.48,26.96l35.24-19.04c-.7-1.36-1.31-2.77-1.83-4.23-.15-.43-.3-.88-.44-1.32-.24-.78-.46-1.57-.65-2.38H0ZM26.23,57.41c.65.59,1.3,1.18,1.96,1.75,6.75,5.96,13.95,11.43,21.52,16.37l29.64-20.48c-.46-.71-.88-1.43-1.29-2.16-6.88-2.5-12.76-7.09-16.88-12.99-.23-.33-.45-.66-.67-1L26.23,57.41ZM52.99,77.61c5.26,3.27,10.7,6.28,16.3,9.01l19.97-20.31c-2.95-2.44-5.6-5.24-7.89-8.31L52.99,77.61ZM83.92,54.47c7.86,11.27,20.92,18.64,35.7,18.64,5.13,0,10.04-.88,14.6-2.51-.61-3.25-1.51-6.41-2.67-9.43-2.55.59-5.21.9-7.94.9-8.83,0-16.91-3.25-23.09-8.61-3.28,1.02-6.78,1.56-10.4,1.56-2.12,0-4.19-.18-6.21-.55Z"/>
</svg>
